<?xml version="1.0" encoding="UTF-8" standalone="no"?>
<!-- Created with Inkscape (http://www.inkscape.org/) -->

<svg
   xmlns:dc="http://purl.org/dc/elements/1.1/"
   xmlns:cc="http://creativecommons.org/ns#"
   xmlns:rdf="http://www.w3.org/1999/02/22-rdf-syntax-ns#"
   xmlns:svg="http://www.w3.org/2000/svg"
   xmlns="http://www.w3.org/2000/svg"
   version="1.1"
   width="2285"
   height="1490.7939"
   viewBox="0 0 2285 1490.794"
   id="svg2"
   xml:space="preserve"><metadata
     id="metadata180"><rdf:RDF><cc:Work
         rdf:about=""><dc:format>image/svg+xml</dc:format><dc:type
           rdf:resource="http://purl.org/dc/dcmitype/StillImage" /><dc:title></dc:title></cc:Work></rdf:RDF></metadata><defs
     id="defs178" /><g
     id="g93"><title
       id="title3253">أضف</title><path
       d="m 2173.578,199.631 c -2.196,-1.242 -5.123,-1.387 -10.601,-1.387 l -7.686,0.029 -60.468,5.486 c -8.431,0 -16.408,-1.364 -23.738,-4.052 -6.814,-2.5 -13.194,-7.58 -19.227,-15.402 -0.608,-0.72 -0.953,-1.225 -1.124,-1.521 0.171,-0.43 0.633,-0.851 1.138,-1.231 9.829,-11.004 18.086,-12.24 18.086,-12.24 l 5.478,2.198 c 2.103,1.063 4.223,2.269 6.326,3.619 2.262,1.459 4.46,2.917 6.563,4.372 3.175,2.201 6.747,3.555 10.599,4.025 2.049,0.229 4.06,-0.343 5.623,-1.626 12.199,-9.982 20.959,-24.587 26.039,-43.421 0.543,-2.027 0.212,-4.19 -0.924,-5.96 -6.035,-9.42 -12.08,-15.855 -18.512,-19.678 -14.541,-8.632 -31.782,-7.619 -48.718,3.427 -8.548,5.583 -16.939,12.379 -24.931,20.206 -7.818,7.639 -15.269,15.77 -22.123,24.174 -6.614,8.11 -12.463,15.035 -17.439,20.681 -6.933,8.147 -10.295,15.463 -10.295,22.365 0,5.369 1.364,10.371 4.063,14.862 2.317,3.857 5.307,7.629 8.879,11.197 3.309,3.318 6.959,6.606 10.836,9.772 2.925,2.405 5.809,4.971 8.574,7.653 0.278,1.118 0.517,2.188 0.714,3.209 -0.066,1.831 -0.462,3.582 -1.177,5.331 -1.045,2.517 -2.222,4.888 -3.52,7.038 -1.667,2.794 -3.175,5.696 -4.433,8.603 -1.589,3.599 -2.382,7.475 -2.382,11.519 v 3.505 c 0,4.116 3.335,7.453 7.45,7.453 5.304,0 10.334,-1.342 14.964,-3.988 3.718,-2.12 7.608,-4.601 11.592,-7.369 3.941,-2.747 7.899,-5.672 11.855,-8.771 3.375,-2.634 7.015,-4.861 10.916,-6.668 7.435,-3.569 15.705,-5.688 24.583,-6.294 9.738,-0.657 19.768,-1.507 29.826,-2.527 10.479,-1.069 20.548,-3.412 29.931,-6.957 10.308,-3.879 19.015,-11.075 25.498,-20.86 5.147,-6.431 7.647,-12.212 7.647,-17.685 0,-3.26 -1.308,-9.217 -9.882,-13.087 z"
       id="path105" /><path
       d="m 2098.527,997.25 c 0.039,-0.094 0.094,-0.182 0.146,-0.279 0.279,-0.618 0.688,-1.371 1.045,-2.063 5.901,-11.419 11.048,-24.591 15.574,-38.495 20.576,-68.84 29.692,-180.726 30.314,-188.584 0.014,-1.023 0.052,-2.08 0.066,-3.092 0.172,-25.738 0.279,-51.147 0.279,-76.223 0,-21.311 -0.147,-42.464 -0.397,-63.337 V 370.069 l 0.397,-19.518 c 0,-7.938 -0.2,-15.804 -0.583,-23.396 -0.41,-7.682 -1.336,-14.644 -2.765,-20.718 -1.574,-6.579 -3.717,-11.766 -6.523,-15.852 -5.201,-7.508 -12.265,-8.629 -16.009,-8.629 -1.193,0 -2.355,0.177 -3.441,0.517 -1.706,0.098 -3.361,0.641 -4.711,1.56 -7.765,5.254 -14.793,12.55 -20.907,21.682 -5.714,8.574 -11.179,17.816 -16.235,27.456 -4.961,9.457 -9.855,19.138 -14.528,28.771 -2.499,5.162 -5.081,9.927 -7.712,14.346 -5.016,8.262 -3.758,15.57 -3.758,15.57 0,0 2.382,78.609 2.792,89.996 0,0.005 0,0.005 0,0.005 0.859,23.909 1.521,45.601 1.959,70.453 0.553,32.455 0.95,65.141 1.15,97.148 0.186,31.732 0.291,63.293 0.291,94.685 v 283.641 c 0,2.16 1.071,4.209 2.949,5.627 1.562,1.191 3.561,1.832 5.625,1.832 0.397,0 0.793,-0.02 1.176,-0.072 5.2,-0.637 10.056,-3.814 15.256,-9.99 2.768,-3.269 5.638,-7.18 8.587,-11.604 1.007,-1.616 2.16,-3.401 3.575,-5.55 2.024,-3.252 4.089,-6.744 6.192,-10.421 0.065,-0.121 0.129,-0.237 0.196,-0.358 z"
       id="path109" /><path
       d="m 1968.604,705.656 c -5.649,-9.193 -13.151,-18.219 -22.28,-26.827 -8.971,-8.454 -19.452,-16.575 -31.136,-24.141 -11.658,-7.53 -23.778,-14.197 -36.016,-19.805 -12.28,-5.632 -24.612,-10.233 -36.64,-13.676 -12.346,-3.514 -23.817,-5.296 -34.125,-5.296 -30.154,0 -72.126,17.601 -128.281,53.788 -14.702,9.348 -30.354,20.155 -46.536,32.121 -16.052,11.872 -32.326,24.502 -48.377,37.541 -15.971,12.973 -31.73,26.364 -46.867,39.806 -15.056,13.389 -29.056,26.367 -41.586,38.569 -12.625,12.294 -23.712,23.807 -32.948,34.22 -7.238,8.14 -13.073,15.287 -17.453,21.328 l -0.276,-0.119 c -0.426,0.593 -0.875,1.216 -1.284,1.798 -33.305,-7.105 -68.688,-17.901 -103.248,-34.225 0,0 -0.014,-0.008 -0.026,-0.011 -3.785,-1.522 -6.854,-2.907 -8.879,-4.091 -12.277,-5.238 -21.449,0.726 -28.408,6.733 -0.517,0.554 -33.266,35.577 -65.035,46.85 -0.052,0.014 -0.092,0.019 -0.145,0.039 -2.699,1.191 -5.57,2.369 -8.614,3.522 -10.73,4.074 -22.191,7.698 -34.072,10.782 -11.896,3.103 -24.015,5.577 -36.044,7.365 -9.394,1.393 -17.968,2.19 -25.749,2.479 -0.436,0.011 -0.845,0.042 -1.307,0.055 -0.662,0.011 -1.376,0.058 -2.025,0.069 -0.557,-0.005 -1.071,-0.044 -1.628,-0.058 -0.424,0 -0.807,0.014 -1.246,0.014 -3.053,-0.039 -6.085,-0.174 -9.115,-0.37 -0.119,-0.008 -0.239,-0.022 -0.357,-0.027 -2.646,-0.177 -5.292,-0.411 -7.926,-0.704 -7.517,-0.772 -14.476,-1.942 -20.799,-3.531 -29.256,-6.617 -56.712,-19.675 -81.139,-35.125 11.115,-6.292 24.597,-22.731 34.417,-36.134 0.104,0.042 0.198,0.088 0.291,0.135 8.745,-11.847 18.338,-26.924 23.856,-42.012 1.507,-5.015 2.882,-10.046 4.128,-15.11 0.119,-0.593 0.252,-1.147 0.383,-1.664 2.025,-8.542 3.758,-17.126 4.976,-25.751 3.067,-21.882 3.506,-43.488 1.283,-64.222 -2.262,-20.911 -7.186,-39.811 -14.673,-56.179 -7.65,-16.707 -18.234,-30.449 -31.493,-40.856 -13.654,-10.694 -30.207,-16.117 -49.196,-16.117 -17.624,0 -34.138,5.734 -49.102,17.046 -14.276,10.796 -27.483,24.949 -39.232,42.067 -11.592,16.881 -21.952,36.131 -30.803,57.213 -8.747,20.842 -16.248,42.021 -22.335,62.953 -6.074,20.93 -10.691,41.044 -13.722,59.765 -3.108,19.102 -4.617,31.622 -4.617,38.28 0,0.684 -0.013,2.405 -3.256,4.231 -14.976,4.675 -31.093,9.323 -48.439,13.894 -14.226,3.661 -30.671,7.655 -49.276,11.946 -21.476,4.957 -45.12,9.743 -70.286,14.206 -25.196,4.482 -52.109,8.424 -80.001,11.717 -27.867,3.302 -56.552,5.307 -85.067,5.961 -62.981,0 -115.46,-4.656 -155.974,-13.847 -40.2,-9.108 -72.26,-21.401 -95.284,-36.545 -22.585,-14.848 -38.462,-32.007 -47.184,-51.007 -8.85,-19.289 -13.352,-39.825 -13.352,-61.036 v -9.519 c 0,-4.49 0.331,-10.333 0.979,-17.369 0.636,-7.075 1.707,-14.785 3.162,-22.908 1.458,-8.076 3.495,-16.385 6.062,-24.692 2.499,-8.154 5.677,-15.783 9.432,-22.679 1.695,-3.108 0.98,-6.976 -1.732,-9.262 -2.698,-2.29 -6.643,-2.348 -9.421,-0.157 -11.47,9.047 -22.362,20.188 -32.351,33.116 -9.924,12.823 -18.696,26.808 -26.081,41.568 -7.369,14.738 -13.204,30.234 -17.332,46.056 -4.155,15.913 -6.259,31.387 -6.259,45.984 0,73.981 31.834,130.353 94.622,167.529 61.512,36.44 151.225,54.918 266.646,54.918 19.846,0 42.87,-0.93 68.446,-2.778 25.658,-1.84 55.919,-5.748 89.937,-11.609 33.901,-5.851 73.317,-14.569 117.126,-25.939 42.834,-11.124 92.478,-26.141 147.616,-44.671 11.854,7.012 22.771,13.596 32.774,19.747 2.144,1.307 4.272,2.516 6.402,3.798 21.887,11.828 51.778,26.042 86.418,37.665 194.931,65.188 288.438,-60.738 294.79,-69.7 0.157,-0.226 0.292,-0.419 0.371,-0.541 3.123,-4.333 7.886,0 7.886,0 8.467,7.266 15.718,13.389 21.752,18.396 7.9,6.554 14.516,11.786 19.637,15.557 5.173,3.793 9.222,6.628 12.132,8.515 0.662,0.425 1.298,0.833 1.934,1.233 -0.862,1.655 -1.707,3.31 -2.543,4.962 -1.851,3.715 -3.863,7.839 -6.045,12.376 -2.225,4.59 -4.59,10.079 -7.238,16.79 -0.065,0.16 -0.134,0.336 -0.2,0.494 -8.931,20.202 -18.865,44.489 -22.031,59.144 0,0 -0.832,7.269 9.515,7.269 9.184,0 16.897,-0.337 22.785,-4.375 0.767,-0.482 1.494,-1.031 2.182,-1.713 19.692,-37.422 51.435,-75.404 51.435,-75.404 9.512,1.393 19.33,2.775 29.426,4.157 12.24,1.68 26.847,3.045 43.413,4.065 16.541,1.018 36.163,1.354 58.446,1.018 22.254,-0.331 49.498,-1.859 80.965,-4.538 0.224,-0.022 0.448,-0.052 0.674,-0.097 63.419,-11.405 120.117,-27.837 168.532,-48.855 48.745,-21.15 89.144,-47.564 120.077,-78.499 0.583,-0.587 1.075,-1.269 1.445,-2.016 10.651,-21.984 19.371,-40.512 25.894,-55.078 6.523,-14.559 11.815,-27.175 15.705,-37.508 3.944,-10.443 6.974,-19.716 9.013,-27.556 2.022,-7.746 4.046,-15.998 6.072,-24.764 0.12,-0.549 0.187,-1.112 0.187,-1.674 0,-9.03 -3.07,-18.601 -9.132,-28.463 z m -967.214,61.533 c -0.741,0.875 -16.91,19.43 -63.777,44.001 -1.244,0.075 -2.503,0.171 -3.718,0.171 -0.319,0 -1.22,-0.099 -2.832,-1.032 -1.191,-0.678 -3.413,-2.278 -7.185,-6.057 -3.309,-3.312 -7.502,-8.154 -12.463,-14.404 -4.566,-5.737 -10.072,-13.102 -16.382,-21.929 0.992,-2.331 2.965,-6.333 6.919,-12.97 4.964,-8.305 10.904,-16.784 17.693,-25.189 6.76,-8.363 13.826,-15.924 21.025,-22.472 8.256,-7.524 12.385,-8.333 13.774,-8.333 2.262,0 6.323,1.035 12.742,5.966 6.006,4.628 11.75,10.294 17.041,16.829 5.332,6.592 9.951,13.596 13.723,20.801 4.273,8.198 5.16,13.281 5.187,15.529 -0.24,3.164 -0.875,6.168 -1.747,9.089 z m 798.351,72.826 c -28.739,12.153 -59.304,22.317 -90.863,30.198 -31.543,7.886 -64.345,13.221 -97.505,15.838 -12.608,1.007 -25.416,1.509 -38.066,1.509 h -0.012 c -14.132,0 -28.437,-0.629 -42.713,-1.878 27.854,-19.716 52.702,-36.97 74.032,-51.426 25.167,-17.057 47.024,-31.428 64.94,-42.712 17.901,-11.268 32.761,-20.122 44.18,-26.317 11.447,-6.204 20.919,-10.903 28.157,-13.965 7,-2.946 12.559,-4.816 16.5,-5.552 4.129,-0.759 7.769,-1.311 10.797,-1.63 6.975,0.047 15.946,1.407 26.664,4.044 10.915,2.692 22.017,6.882 32.986,12.44 10.875,5.517 20.944,12.467 29.916,20.657 6.975,6.366 12.359,13.692 16.039,21.841 -23.157,13.261 -48.375,25.679 -75.052,36.953 z"
       id="path107" /><path
       d="m 1400.751,559.496 c 2.29,1.939 6.245,5.026 11.896,9.254 5.476,4.112 12.847,9.596 22.097,16.439 9.249,6.865 21.248,15.606 35.989,26.231 1.349,0.968 2.899,1.438 4.458,1.438 2.196,0 4.368,-0.946 5.862,-2.758 l 64.651,-77.973 c 1.376,-1.655 1.983,-3.806 1.681,-5.93 -0.291,-2.124 -1.47,-4.021 -3.244,-5.232 l -81.575,-55.922 c -3.372,-2.32 -7.965,-1.553 -10.413,1.718 -11.261,15.033 -20.232,26.888 -26.887,35.594 -6.841,8.942 -12.001,15.899 -15.812,21.25 -3.836,5.428 -6.72,9.621 -8.64,12.586 -2.025,3.125 -3.98,6.565 -5.809,10.226 -1.072,2.135 -1.072,4.645 -0.013,6.78 0.889,1.803 2.45,3.513 5.759,6.299 z"
       id="path95" /></g><g
     id="g111"><title
       id="title3251">Arab Digital Expression Foundation</title><path
       d="m 247.543,1342.109 -10.431,-26.676 h -33.61 l -10.321,26.676 h -9.864 l 33.146,-84.195 h 8.205 l 32.975,84.195 h -10.1 z m -13.475,-35.447 -9.746,-25.973 c -1.264,-3.282 -2.568,-7.317 -3.902,-12.098 -0.841,3.668 -2.046,7.701 -3.615,12.098 l -9.864,25.973 h 27.127 z"
       id="path113" /><path
       d="m 296.408,1278.11 c 2.786,0 5.292,0.221 7.508,0.688 l -1.315,8.823 c -2.6,-0.565 -4.895,-0.86 -6.881,-0.86 -5.086,0 -9.434,2.063 -13.047,6.209 -3.619,4.126 -5.423,9.26 -5.423,15.411 v 33.729 h -9.515 v -62.849 h 7.853 l 1.092,11.643 h 0.457 c 2.334,-4.102 5.14,-7.251 8.428,-9.475 3.288,-2.209 6.902,-3.319 10.843,-3.319 z"
       id="path115" /><path
       d="m 354.323,1342.109 -1.891,-8.945 h -0.465 c -3.135,3.931 -6.259,6.604 -9.373,7.996 -3.117,1.401 -7.006,2.091 -11.67,2.091 -6.232,0 -11.115,-1.603 -14.649,-4.818 -3.538,-3.203 -5.304,-7.784 -5.304,-13.698 0,-12.699 10.148,-19.344 30.445,-19.965 l 10.673,-0.345 v -3.887 c 0,-4.938 -1.066,-8.578 -3.183,-10.931 -2.125,-2.358 -5.519,-3.533 -10.183,-3.533 -5.238,0 -11.16,1.61 -17.776,4.829 l -2.925,-7.29 c 3.096,-1.68 6.492,-3.004 10.181,-3.958 3.688,-0.952 7.386,-1.429 11.096,-1.429 7.49,0 13.047,1.655 16.659,4.989 3.614,3.318 5.42,8.656 5.42,15.999 v 42.895 h -7.055 z m -21.508,-6.706 c 5.93,0 10.586,-1.63 13.965,-4.885 3.383,-3.241 5.077,-7.795 5.077,-13.64 v -5.68 l -9.521,0.4 c -7.569,0.262 -13.026,1.439 -16.375,3.53 -3.34,2.08 -5.014,5.318 -5.014,9.709 0,3.442 1.037,6.063 3.123,7.864 2.082,1.798 4.999,2.702 8.745,2.702 z"
       id="path117" /><path
       d="m 410.234,1278.227 c 8.257,0 14.676,2.819 19.239,8.454 4.572,5.638 6.854,13.615 6.854,23.937 0,10.336 -2.303,18.352 -6.907,24.072 -4.611,5.698 -11.003,8.562 -19.187,8.562 -4.089,0 -7.825,-0.759 -11.208,-2.265 -3.385,-1.509 -6.225,-3.823 -8.52,-6.959 h -0.688 l -2.007,8.082 h -6.82 v -89.237 h 9.515 v 21.678 c 0,4.852 -0.151,9.224 -0.456,13.071 h 0.456 c 4.44,-6.26 11.016,-9.395 19.729,-9.395 z m -1.375,7.965 c -6.499,0 -11.181,1.864 -14.045,5.594 -2.873,3.721 -4.307,10.008 -4.307,18.831 0,8.841 1.476,15.151 4.42,18.961 2.943,3.798 7.66,5.704 14.163,5.704 5.849,0 10.208,-2.132 13.073,-6.394 2.87,-4.259 4.301,-10.383 4.301,-18.376 0,-8.189 -1.431,-14.277 -4.301,-18.299 -2.865,-4.007 -7.303,-6.021 -13.304,-6.021 z"
       id="path119" /><path
       d="m 551.82,1299.383 c 0,13.844 -3.755,24.428 -11.271,31.745 -7.511,7.315 -18.321,10.981 -32.426,10.981 h -23.229 v -83.848 h 25.69 c 13.041,0 23.171,3.624 30.393,10.846 7.231,7.227 10.843,17.312 10.843,30.276 z m -10.318,0.345 c 0,-10.929 -2.748,-19.17 -8.231,-24.718 -5.49,-5.544 -13.643,-8.308 -24.459,-8.308 h -14.163 v 66.978 h 11.866 c 11.624,0 20.359,-2.857 26.207,-8.57 5.846,-5.721 8.78,-14.172 8.78,-25.382 z"
       id="path121" /><path
       d="m 568.275,1262.229 c 0,-2.183 0.536,-3.782 1.608,-4.786 1.071,-1.021 2.408,-1.522 4.015,-1.522 1.528,0 2.844,0.513 3.958,1.547 1.102,1.032 1.659,2.618 1.659,4.762 0,2.132 -0.558,3.731 -1.659,4.777 -1.114,1.056 -2.43,1.586 -3.958,1.586 -1.607,0 -2.943,-0.53 -4.015,-1.586 -1.071,-1.047 -1.608,-2.647 -1.608,-4.778 z m 10.322,79.88 h -9.515 v -62.849 h 9.515 v 62.849 z"
       id="path123" /><path
       d="m 650.225,1279.261 v 6.019 l -11.644,1.377 c 1.071,1.335 2.024,3.083 2.873,5.24 0.841,2.171 1.256,4.601 1.256,7.318 0,6.15 -2.104,11.061 -6.306,14.737 -4.208,3.666 -9.974,5.506 -17.319,5.506 -1.873,0 -3.633,-0.157 -5.274,-0.464 -4.055,2.144 -6.08,4.844 -6.08,8.085 0,1.721 0.709,2.987 2.116,3.812 1.416,0.831 3.845,1.239 7.286,1.239 h 11.127 c 6.802,0 12.036,1.434 15.685,4.303 3.645,2.857 5.474,7.028 5.474,12.489 0,6.96 -2.792,12.27 -8.37,15.921 -5.583,3.649 -13.727,5.479 -24.431,5.479 -8.219,0 -14.557,-1.533 -19.009,-4.593 -4.454,-3.056 -6.684,-7.373 -6.684,-12.956 0,-3.822 1.226,-7.127 3.674,-9.921 2.448,-2.795 5.888,-4.687 10.32,-5.68 -1.609,-0.723 -2.951,-1.849 -4.043,-3.388 -1.089,-1.517 -1.634,-3.302 -1.634,-5.331 0,-2.29 0.609,-4.301 1.833,-6.02 1.225,-1.721 3.157,-3.387 5.796,-4.989 -3.248,-1.332 -5.901,-3.613 -7.947,-6.827 -2.042,-3.199 -3.07,-6.882 -3.07,-11.008 0,-6.883 2.072,-12.187 6.201,-15.905 4.128,-3.729 9.977,-5.594 17.546,-5.594 3.288,0 6.25,0.384 8.889,1.15 h 21.735 z m -50.12,73.396 c 0,3.398 1.434,5.977 4.299,7.737 2.866,1.765 6.98,2.647 12.333,2.647 7.987,0 13.906,-1.205 17.743,-3.583 3.845,-2.395 5.765,-5.641 5.765,-9.729 0,-3.398 -1.054,-5.757 -3.153,-7.078 -2.103,-1.324 -6.057,-1.985 -11.875,-1.985 h -11.406 c -4.325,0 -7.687,1.034 -10.095,3.098 -2.408,2.066 -3.611,5.029 -3.611,8.893 z m 5.161,-53.274 c 0,4.396 1.241,7.731 3.724,9.979 2.487,2.262 5.949,3.388 10.381,3.388 9.294,0 13.938,-4.513 13.938,-13.535 0,-9.45 -4.705,-14.173 -14.112,-14.173 -4.471,0 -7.913,1.203 -10.32,3.611 -2.408,2.419 -3.611,5.996 -3.611,10.73 z"
       id="path125" /><path
       d="m 662.319,1262.229 c 0,-2.183 0.537,-3.782 1.608,-4.786 1.07,-1.021 2.408,-1.522 4.017,-1.522 1.525,0 2.844,0.513 3.956,1.547 1.105,1.032 1.659,2.618 1.659,4.762 0,2.132 -0.554,3.731 -1.659,4.777 -1.111,1.056 -2.43,1.586 -3.956,1.586 -1.609,0 -2.947,-0.53 -4.017,-1.586 -1.072,-1.047 -1.608,-2.647 -1.608,-4.778 z m 10.322,79.88 h -9.512 v -62.849 h 9.512 v 62.849 z"
       id="path127" /><path
       d="m 713.13,1335.403 c 1.682,0 3.308,-0.138 4.874,-0.375 1.568,-0.251 2.813,-0.513 3.727,-0.774 v 7.273 c -1.031,0.505 -2.554,0.913 -4.558,1.244 -2.004,0.316 -3.811,0.479 -5.418,0.479 -12.162,0 -18.232,-6.394 -18.232,-19.203 v -37.392 h -9.006 v -4.59 l 9.006,-3.956 4.008,-13.419 h 5.504 v 14.569 h 18.241 v 7.396 h -18.241 v 36.98 c 0,3.787 0.9,6.697 2.699,8.719 1.792,2.029 4.261,3.049 7.396,3.049 z"
       id="path129" /><path
       d="m 772.944,1342.109 -1.894,-8.945 h -0.462 c -3.137,3.931 -6.259,6.604 -9.376,7.996 -3.114,1.401 -7.006,2.091 -11.67,2.091 -6.232,0 -11.115,-1.603 -14.647,-4.818 -3.541,-3.203 -5.307,-7.784 -5.307,-13.698 0,-12.699 10.151,-19.344 30.448,-19.965 l 10.67,-0.345 v -3.887 c 0,-4.938 -1.064,-8.578 -3.18,-10.931 -2.125,-2.358 -5.518,-3.533 -10.185,-3.533 -5.239,0 -11.159,1.61 -17.776,4.829 l -2.924,-7.29 c 3.098,-1.68 6.49,-3.004 10.182,-3.958 3.686,-0.952 7.383,-1.429 11.096,-1.429 7.487,0 13.047,1.655 16.657,4.989 3.612,3.318 5.419,8.656 5.419,15.999 v 42.895 h -7.051 z m -21.507,-6.706 c 5.926,0 10.585,-1.63 13.965,-4.885 3.381,-3.241 5.074,-7.795 5.074,-13.64 v -5.68 l -9.521,0.4 c -7.567,0.262 -13.024,1.439 -16.373,3.53 -3.341,2.08 -5.016,5.318 -5.016,9.709 0,3.442 1.04,6.063 3.123,7.864 2.084,1.798 5.001,2.702 8.748,2.702 z"
       id="path131" /><path
       d="m 809.125,1342.109 h -9.512 v -89.237 h 9.512 v 89.237 z"
       id="path133" /><path
       d="m 907.993,1342.109 h -46.741 v -83.848 h 46.741 v 8.667 h -36.99 v 27.001 h 34.755 v 8.604 h -34.755 v 30.856 h 36.99 v 8.72 z"
       id="path135" /><path
       d="m 940.279,1309.928 -21.853,-30.667 h 10.844 l 16.573,24.083 16.513,-24.083 h 10.723 l -21.853,30.667 22.998,32.182 h -10.777 l -17.604,-25.474 -17.777,25.474 h -10.785 l 22.998,-32.182 z"
       id="path137" /><path
       d="m 1015.918,1343.251 c -4.089,0 -7.825,-0.759 -11.208,-2.265 -3.384,-1.509 -6.224,-3.823 -8.519,-6.959 h -0.688 c 0.462,3.666 0.688,7.142 0.688,10.427 v 25.867 h -9.515 v -91.061 h 7.743 l 1.315,8.598 h 0.457 c 2.448,-3.439 5.3,-5.925 8.548,-7.464 3.247,-1.518 6.973,-2.284 11.179,-2.284 8.336,0 14.767,2.841 19.3,8.546 4.53,5.688 6.793,13.681 6.793,23.961 0,10.336 -2.303,18.352 -6.907,24.072 -4.611,5.699 -11.002,8.562 -19.186,8.562 z m -1.376,-57.059 c -6.422,0 -11.069,1.771 -13.931,5.332 -2.873,3.561 -4.342,9.224 -4.42,16.975 v 2.118 c 0,8.841 1.476,15.151 4.42,18.961 2.943,3.798 7.66,5.704 14.163,5.704 5.426,0 9.68,-2.195 12.756,-6.593 3.083,-4.401 4.619,-10.462 4.619,-18.177 0,-7.848 -1.536,-13.858 -4.619,-18.037 -3.076,-4.192 -7.404,-6.283 -12.988,-6.283 z"
       id="path139" /><path
       d="m 1087.316,1278.11 c 2.787,0 5.294,0.221 7.511,0.688 l -1.318,8.823 c -2.6,-0.565 -4.895,-0.86 -6.88,-0.86 -5.086,0 -9.432,2.063 -13.047,6.209 -3.619,4.126 -5.423,9.26 -5.423,15.411 v 33.729 h -9.515 v -62.849 h 7.853 l 1.092,11.643 h 0.457 c 2.335,-4.102 5.14,-7.251 8.428,-9.475 3.287,-2.209 6.9,-3.319 10.842,-3.319 z"
       id="path141" /><path
       d="m 1133.133,1343.251 c -9.289,0 -16.627,-2.821 -21.992,-8.484 -5.374,-5.66 -8.057,-13.508 -8.057,-23.567 0,-10.137 2.492,-18.177 7.482,-24.144 4.987,-5.972 11.689,-8.945 20.098,-8.945 7.874,0 14.105,2.59 18.696,7.762 4.584,5.191 6.88,12.019 6.88,20.512 v 6.019 h -43.293 c 0.191,7.37 2.051,12.983 5.588,16.809 3.535,3.823 8.518,5.729 14.94,5.729 6.768,0 13.456,-1.418 20.072,-4.248 v 8.493 c -3.367,1.453 -6.55,2.488 -9.555,3.125 -2.993,0.633 -6.618,0.939 -10.859,0.939 z m -2.582,-57.177 c -5.048,0 -9.071,1.651 -12.073,4.937 -3.004,3.291 -4.772,7.845 -5.307,13.654 h 32.861 c 0,-6.008 -1.336,-10.598 -4.015,-13.803 -2.674,-3.188 -6.496,-4.788 -11.466,-4.788 z"
       id="path143" /><path
       d="m 1213.013,1324.961 c 0,5.851 -2.185,10.362 -6.536,13.535 -4.362,3.178 -10.481,4.755 -18.355,4.755 -8.334,0 -14.832,-1.315 -19.496,-3.961 v -8.824 c 3.018,1.534 6.257,2.742 9.719,3.614 3.462,0.871 6.794,1.323 10.011,1.323 4.966,0 8.792,-0.794 11.463,-2.386 2.682,-1.586 4.015,-4.008 4.015,-7.249 0,-2.446 -1.058,-4.537 -3.181,-6.286 -2.124,-1.732 -6.257,-3.798 -12.419,-6.165 -5.848,-2.187 -10.003,-4.076 -12.472,-5.704 -2.466,-1.624 -4.299,-3.467 -5.504,-5.53 -1.203,-2.065 -1.804,-4.54 -1.804,-7.397 0,-5.131 2.083,-9.169 6.25,-12.132 4.162,-2.962 9.88,-4.443 17.143,-4.443 6.769,0 13.383,1.377 19.842,4.13 l -3.383,7.733 c -6.303,-2.587 -12.02,-3.899 -17.146,-3.899 -4.513,0 -7.914,0.714 -10.208,2.132 -2.29,1.412 -3.439,3.359 -3.439,5.845 0,1.68 0.427,3.108 1.288,4.303 0.859,1.192 2.248,2.314 4.161,3.388 1.912,1.07 5.578,2.62 11.009,4.643 7.456,2.717 12.492,5.437 15.111,8.189 2.621,2.75 3.931,6.215 3.931,10.386 z"
       id="path145" /><path
       d="m 1269.042,1324.961 c 0,5.851 -2.185,10.362 -6.536,13.535 -4.36,3.178 -10.482,4.755 -18.355,4.755 -8.335,0 -14.833,-1.315 -19.496,-3.961 v -8.824 c 3.017,1.534 6.26,2.742 9.719,3.614 3.461,0.871 6.793,1.323 10.011,1.323 4.968,0 8.792,-0.794 11.462,-2.386 2.682,-1.586 4.019,-4.008 4.019,-7.249 0,-2.446 -1.061,-4.537 -3.184,-6.286 -2.124,-1.732 -6.258,-3.798 -12.419,-6.165 -5.848,-2.187 -10.003,-4.076 -12.469,-5.704 -2.469,-1.624 -4.301,-3.467 -5.504,-5.53 -1.205,-2.065 -1.807,-4.54 -1.807,-7.397 0,-5.131 2.083,-9.169 6.253,-12.132 4.16,-2.962 9.876,-4.443 17.14,-4.443 6.768,0 13.383,1.377 19.841,4.13 l -3.379,7.733 c -6.305,-2.587 -12.023,-3.899 -17.15,-3.899 -4.511,0 -7.912,0.714 -10.207,2.132 -2.291,1.412 -3.441,3.359 -3.441,5.845 0,1.68 0.429,3.108 1.29,4.303 0.859,1.192 2.248,2.314 4.16,3.388 1.916,1.07 5.579,2.62 11.01,4.643 7.458,2.717 12.492,5.437 15.111,8.189 2.621,2.75 3.931,6.215 3.931,10.386 z"
       id="path147" /><path
       d="m 1283.722,1262.229 c 0,-2.183 0.537,-3.782 1.608,-4.786 1.071,-1.021 2.408,-1.522 4.015,-1.522 1.529,0 2.845,0.513 3.958,1.547 1.104,1.032 1.659,2.618 1.659,4.762 0,2.132 -0.556,3.731 -1.659,4.777 -1.113,1.056 -2.429,1.586 -3.958,1.586 -1.607,0 -2.943,-0.53 -4.015,-1.586 -1.071,-1.047 -1.608,-2.647 -1.608,-4.778 z m 10.322,79.88 h -9.515 v -62.849 h 9.515 v 62.849 z"
       id="path149" /><path
       d="m 1368.478,1310.617 c 0,10.259 -2.579,18.246 -7.739,24.003 -5.161,5.757 -12.294,8.631 -21.391,8.631 -5.618,0 -10.604,-1.315 -14.964,-3.961 -4.36,-2.631 -7.729,-6.413 -10.096,-11.351 -2.368,-4.921 -3.553,-10.705 -3.553,-17.322 0,-10.241 2.561,-18.222 7.679,-23.937 5.129,-5.713 12.232,-8.57 21.337,-8.57 8.794,0 15.779,2.921 20.96,8.771 5.181,5.846 7.767,13.763 7.767,23.736 z m -47.878,0 c 0,8.029 1.603,14.145 4.816,18.352 3.209,4.206 7.932,6.313 14.164,6.313 6.234,0 10.964,-2.091 14.192,-6.286 3.227,-4.182 4.85,-10.305 4.85,-18.379 0,-7.979 -1.623,-14.051 -4.85,-18.205 -3.228,-4.143 -8,-6.22 -14.311,-6.22 -6.232,0 -10.93,2.05 -14.104,6.14 -3.177,4.088 -4.757,10.187 -4.757,18.285 z"
       id="path151" /><path
       d="m 1428.181,1342.109 v -40.663 c 0,-5.12 -1.171,-8.945 -3.5,-11.473 -2.335,-2.526 -5.988,-3.781 -10.957,-3.781 -6.576,0 -11.392,1.771 -14.448,5.332 -3.063,3.561 -4.591,9.422 -4.591,17.611 v 32.974 h -9.515 v -62.849 h 7.743 l 1.546,8.598 h 0.458 c 1.95,-3.095 4.685,-5.489 8.203,-7.196 3.514,-1.708 7.43,-2.552 11.756,-2.552 7.567,0 13.266,1.823 17.091,5.473 3.816,3.655 5.728,9.491 5.728,17.521 v 41.006 h -9.514 z"
       id="path153" /><path
       d="m 1498.943,1342.109 h -9.751 v -83.848 h 46.741 v 8.667 h -36.99 v 30.684 h 34.752 v 8.649 h -34.752 v 35.848 z"
       id="path155" /><path
       d="m 1602.62,1310.617 c 0,10.259 -2.579,18.246 -7.74,24.003 -5.161,5.757 -12.292,8.631 -21.391,8.631 -5.615,0 -10.604,-1.315 -14.964,-3.961 -4.358,-2.631 -7.726,-6.413 -10.094,-11.351 -2.369,-4.921 -3.554,-10.705 -3.554,-17.322 0,-10.241 2.561,-18.222 7.682,-23.937 5.126,-5.713 12.233,-8.57 21.335,-8.57 8.792,0 15.778,2.921 20.959,8.771 5.18,5.846 7.767,13.763 7.767,23.736 z m -47.879,0 c 0,8.029 1.603,14.145 4.817,18.352 3.209,4.206 7.93,6.313 14.166,6.313 6.232,0 10.961,-2.091 14.189,-6.286 3.23,-4.182 4.85,-10.305 4.85,-18.379 0,-7.979 -1.62,-14.051 -4.85,-18.205 -3.228,-4.143 -7.997,-6.22 -14.311,-6.22 -6.231,0 -10.93,2.05 -14.104,6.14 -3.175,4.088 -4.757,10.187 -4.757,18.285 z"
       id="path157" /><path
       d="m 1628.256,1279.261 v 40.763 c 0,5.122 1.167,8.945 3.493,11.478 2.338,2.526 5.987,3.781 10.956,3.781 6.576,0 11.388,-1.801 14.423,-5.384 3.036,-3.603 4.56,-9.464 4.56,-17.612 v -33.025 h 9.519 v 62.849 h -7.852 l -1.376,-8.43 h -0.523 c -1.946,3.101 -4.65,5.467 -8.112,7.108 -3.458,1.639 -7.409,2.463 -11.841,2.463 -7.647,0 -13.372,-1.817 -17.175,-5.442 -3.805,-3.641 -5.704,-9.449 -5.704,-17.438 v -41.11 h 9.632 z"
       id="path159" /><path
       d="m 1734.409,1342.109 v -40.663 c 0,-5.12 -1.171,-8.945 -3.5,-11.473 -2.335,-2.526 -5.987,-3.781 -10.956,-3.781 -6.576,0 -11.392,1.771 -14.447,5.332 -3.064,3.561 -4.593,9.422 -4.593,17.611 v 32.974 h -9.512 v -62.849 h 7.739 l 1.55,8.598 h 0.454 c 1.954,-3.095 4.685,-5.489 8.205,-7.196 3.514,-1.708 7.429,-2.552 11.757,-2.552 7.569,0 13.265,1.823 17.088,5.473 3.819,3.655 5.73,9.491 5.73,17.521 v 41.006 h -9.515 z"
       id="path161" /><path
       d="m 1806.265,1333.68 h -0.515 c -4.402,6.377 -10.978,9.571 -19.731,9.571 -8.217,0 -14.614,-2.805 -19.179,-8.432 -4.572,-5.608 -6.854,-13.604 -6.854,-23.962 0,-10.363 2.296,-18.409 6.881,-24.149 4.585,-5.729 10.97,-8.598 19.152,-8.598 8.527,0 15.064,3.092 19.61,9.285 h 0.749 l -0.405,-4.527 -0.222,-4.416 v -25.58 h 9.519 v 89.237 h -7.741 l -1.264,-8.429 z m -19.041,1.602 c 6.498,0 11.214,-1.776 14.138,-5.304 2.925,-3.536 4.389,-9.241 4.389,-17.124 v -1.997 c 0,-8.906 -1.484,-15.272 -4.446,-19.071 -2.965,-3.807 -7.694,-5.712 -14.191,-5.712 -5.584,0 -9.86,2.168 -12.822,6.512 -2.957,4.339 -4.441,10.463 -4.441,18.379 0,8.029 1.472,14.09 4.415,18.178 2.942,4.089 7.262,6.139 12.958,6.139 z"
       id="path163" /><path
       d="m 1874.104,1342.109 -1.894,-8.945 h -0.462 c -3.136,3.931 -6.259,6.604 -9.375,7.996 -3.116,1.401 -7.005,2.091 -11.669,2.091 -6.233,0 -11.116,-1.603 -14.648,-4.818 -3.54,-3.203 -5.306,-7.784 -5.306,-13.698 0,-12.699 10.148,-19.344 30.446,-19.965 l 10.669,-0.345 v -3.887 c 0,-4.938 -1.063,-8.578 -3.18,-10.931 -2.124,-2.358 -5.517,-3.533 -10.181,-3.533 -5.242,0 -11.162,1.61 -17.777,4.829 l -2.925,-7.29 c 3.096,-1.68 6.489,-3.004 10.183,-3.958 3.684,-0.952 7.384,-1.429 11.095,-1.429 7.49,0 13.047,1.655 16.657,4.989 3.614,3.318 5.419,8.656 5.419,15.999 v 42.895 h -7.052 z m -21.508,-6.706 c 5.926,0 10.585,-1.63 13.965,-4.885 3.38,-3.241 5.074,-7.795 5.074,-13.64 v -5.68 l -9.52,0.4 c -7.569,0.262 -13.026,1.439 -16.374,3.53 -3.342,2.08 -5.015,5.318 -5.015,9.709 0,3.442 1.039,6.063 3.124,7.864 2.083,1.798 5,2.702 8.746,2.702 z"
       id="path165" /><path
       d="m 1921.07,1335.403 c 1.681,0 3.308,-0.138 4.874,-0.375 1.568,-0.251 2.813,-0.513 3.727,-0.774 v 7.273 c -1.032,0.505 -2.554,0.913 -4.558,1.244 -2.004,0.316 -3.811,0.479 -5.418,0.479 -12.162,0 -18.233,-6.394 -18.233,-19.203 v -37.392 h -9.006 v -4.59 l 9.006,-3.956 4.007,-13.419 h 5.505 v 14.569 h 18.241 v 7.396 h -18.241 v 36.98 c 0,3.787 0.901,6.697 2.699,8.719 1.793,2.029 4.262,3.049 7.397,3.049 z"
       id="path167" /><path
       d="m 1941.426,1262.229 c 0,-2.183 0.535,-3.782 1.607,-4.786 1.074,-1.021 2.408,-1.522 4.018,-1.522 1.529,0 2.845,0.513 3.955,1.547 1.106,1.032 1.659,2.618 1.659,4.762 0,2.132 -0.553,3.731 -1.659,4.777 -1.11,1.056 -2.426,1.586 -3.955,1.586 -1.609,0 -2.943,-0.53 -4.018,-1.586 -1.072,-1.047 -1.607,-2.647 -1.607,-4.778 z m 10.321,79.88 h -9.512 v -62.849 h 9.512 v 62.849 z"
       id="path169" /><path
       d="m 2026.183,1310.617 c 0,10.259 -2.582,18.246 -7.741,24.003 -5.161,5.757 -12.291,8.631 -21.388,8.631 -5.618,0 -10.607,-1.315 -14.967,-3.961 -4.359,-2.631 -7.726,-6.413 -10.096,-11.351 -2.368,-4.921 -3.553,-10.705 -3.553,-17.322 0,-10.241 2.562,-18.222 7.682,-23.937 5.126,-5.713 12.232,-8.57 21.334,-8.57 8.793,0 15.782,2.921 20.96,8.771 5.183,5.846 7.769,13.763 7.769,23.736 z m -47.88,0 c 0,8.029 1.603,14.145 4.816,18.352 3.209,4.206 7.934,6.313 14.167,6.313 6.231,0 10.962,-2.091 14.192,-6.286 3.227,-4.182 4.848,-10.305 4.848,-18.379 0,-7.979 -1.621,-14.051 -4.848,-18.205 -3.23,-4.143 -8,-6.22 -14.311,-6.22 -6.235,0 -10.93,2.05 -14.104,6.14 -3.18,4.088 -4.76,10.187 -4.76,18.285 z"
       id="path171" /><path
       d="m 2085.884,1342.109 v -40.663 c 0,-5.12 -1.171,-8.945 -3.5,-11.473 -2.335,-2.526 -5.986,-3.781 -10.955,-3.781 -6.576,0 -11.392,1.771 -14.448,5.332 -3.066,3.561 -4.594,9.422 -4.594,17.611 v 32.974 h -9.512 v -62.849 h 7.74 l 1.549,8.598 h 0.458 c 1.95,-3.095 4.682,-5.489 8.2,-7.196 3.514,-1.708 7.43,-2.552 11.757,-2.552 7.569,0 13.266,1.823 17.089,5.473 3.819,3.655 5.73,9.491 5.73,17.521 v 41.006 h -9.514 z"
       id="path173" /></g></svg>